<svg width="13" height="13" viewBox="0 0 13 13" fill="none" xmlns="http://www.w3.org/2000/svg">
<g clip-path="url(#clip0_4_167)">
<path d="M6.82553 11.8078C7.83303 10.9379 10.8333 8.12119 10.8333 5.41665C10.8333 4.26737 10.3768 3.16517 9.56412 2.35252C8.75146 1.53986 7.64926 1.08331 6.49999 1.08331C5.35072 1.08331 4.24852 1.53986 3.43586 2.35252C2.6232 3.16517 2.16666 4.26737 2.16666 5.41665C2.16666 8.12119 5.16695 10.9379 6.17445 11.8078C6.26831 11.8783 6.38256 11.9165 6.49999 11.9165C6.61742 11.9165 6.73167 11.8783 6.82553 11.8078Z" stroke="#756D5E" stroke-width="0.765625" stroke-linecap="round" stroke-linejoin="round"/>
<path d="M6.5 7.04169C7.39746 7.04169 8.125 6.31415 8.125 5.41669C8.125 4.51923 7.39746 3.79169 6.5 3.79169C5.60254 3.79169 4.875 4.51923 4.875 5.41669C4.875 6.31415 5.60254 7.04169 6.5 7.04169Z" stroke="#756D5E" stroke-width="0.765625" stroke-linecap="round" stroke-linejoin="round"/>
</g>
<defs>
<clipPath id="clip0_4_167">
<rect width="12.25" height="12.25" fill="white" transform="scale(1.06122)"/>
</clipPath>
</defs>
</svg>
