<svg width="13" height="13" viewBox="0 0 13 13" fill="none" xmlns="http://www.w3.org/2000/svg">
<g clip-path="url(#clip0_18_1293)">
<path d="M5.41664 10.8333C5.4166 10.934 5.4446 11.0327 5.49751 11.1183C5.55042 11.2039 5.62614 11.2731 5.71619 11.3181L6.79952 11.8598C6.88212 11.9011 6.9739 11.9205 7.06615 11.9164C7.1584 11.9122 7.24804 11.8845 7.32658 11.8359C7.40511 11.7873 7.46992 11.7195 7.51486 11.6388C7.55979 11.5582 7.58335 11.4673 7.58331 11.375V7.58333C7.58343 7.31487 7.68323 7.05602 7.86335 6.85696L11.7758 2.52958C11.8459 2.45189 11.892 2.35554 11.9086 2.25219C11.9251 2.14884 11.9113 2.04291 11.8689 1.94722C11.8265 1.85153 11.7573 1.77018 11.6696 1.71299C11.582 1.65581 11.4796 1.62525 11.375 1.625H1.62498C1.52022 1.62504 1.41773 1.65545 1.3299 1.71255C1.24208 1.76966 1.1727 1.851 1.13017 1.94673C1.08763 2.04246 1.07377 2.14847 1.09026 2.25192C1.10674 2.35537 1.15288 2.45182 1.22306 2.52958L5.1366 6.85696C5.31673 7.05602 5.41652 7.31487 5.41664 7.58333V10.8333Z" stroke="#F4EFE6" stroke-width="1.02083" stroke-linecap="round" stroke-linejoin="round"/>
</g>
<defs>
<clipPath id="clip0_18_1293">
<rect width="12.25" height="12.25" fill="white" transform="scale(1.06122)"/>
</clipPath>
</defs>
</svg>
