<svg width="11" height="11" viewBox="0 0 11 11" fill="none" xmlns="http://www.w3.org/2000/svg">
<path d="M8.70833 1.375H2.29167C1.78541 1.375 1.375 1.78541 1.375 2.29167V8.70833C1.375 9.21459 1.78541 9.625 2.29167 9.625H8.70833C9.21459 9.625 9.625 9.21459 9.625 8.70833V2.29167C9.625 1.78541 9.21459 1.375 8.70833 1.375Z" stroke="#756D5E" stroke-width="0.875" stroke-linecap="round" stroke-linejoin="round"/>
<path d="M4.125 5.04167C4.63126 5.04167 5.04167 4.63126 5.04167 4.125C5.04167 3.61874 4.63126 3.20833 4.125 3.20833C3.61874 3.20833 3.20833 3.61874 3.20833 4.125C3.20833 4.63126 3.61874 5.04167 4.125 5.04167Z" stroke="#756D5E" stroke-width="0.875" stroke-linecap="round" stroke-linejoin="round"/>
<path d="M9.625 6.87499L8.21058 5.46057C8.03868 5.28872 7.80557 5.19219 7.5625 5.19219C7.31943 5.19219 7.08632 5.28872 6.91442 5.46057L2.75 9.62499" stroke="#756D5E" stroke-width="0.875" stroke-linecap="round" stroke-linejoin="round"/>
</svg>
