<svg width="14" height="14" viewBox="0 0 14 14" fill="none" xmlns="http://www.w3.org/2000/svg">
<path d="M5.24999 7.58332C5.57216 7.58332 5.83332 7.32216 5.83332 6.99999C5.83332 6.67782 5.57216 6.41666 5.24999 6.41666C4.92782 6.41666 4.66666 6.67782 4.66666 6.99999C4.66666 7.32216 4.92782 7.58332 5.24999 7.58332Z" stroke="#756D5E" stroke-opacity="0.4" stroke-width="1.16667" stroke-linecap="round" stroke-linejoin="round"/>
<path d="M5.24999 3.50001C5.57216 3.50001 5.83332 3.23884 5.83332 2.91668C5.83332 2.59451 5.57216 2.33334 5.24999 2.33334C4.92782 2.33334 4.66666 2.59451 4.66666 2.91668C4.66666 3.23884 4.92782 3.50001 5.24999 3.50001Z" stroke="#756D5E" stroke-opacity="0.4" stroke-width="1.16667" stroke-linecap="round" stroke-linejoin="round"/>
<path d="M5.24999 11.6667C5.57216 11.6667 5.83332 11.4055 5.83332 11.0833C5.83332 10.7612 5.57216 10.5 5.24999 10.5C4.92782 10.5 4.66666 10.7612 4.66666 11.0833C4.66666 11.4055 4.92782 11.6667 5.24999 11.6667Z" stroke="#756D5E" stroke-opacity="0.4" stroke-width="1.16667" stroke-linecap="round" stroke-linejoin="round"/>
<path d="M8.74999 7.58332C9.07216 7.58332 9.33332 7.32216 9.33332 6.99999C9.33332 6.67782 9.07216 6.41666 8.74999 6.41666C8.42782 6.41666 8.16666 6.67782 8.16666 6.99999C8.16666 7.32216 8.42782 7.58332 8.74999 7.58332Z" stroke="#756D5E" stroke-opacity="0.4" stroke-width="1.16667" stroke-linecap="round" stroke-linejoin="round"/>
<path d="M8.74999 3.50001C9.07216 3.50001 9.33332 3.23884 9.33332 2.91668C9.33332 2.59451 9.07216 2.33334 8.74999 2.33334C8.42782 2.33334 8.16666 2.59451 8.16666 2.91668C8.16666 3.23884 8.42782 3.50001 8.74999 3.50001Z" stroke="#756D5E" stroke-opacity="0.4" stroke-width="1.16667" stroke-linecap="round" stroke-linejoin="round"/>
<path d="M8.74999 11.6667C9.07216 11.6667 9.33332 11.4055 9.33332 11.0833C9.33332 10.7612 9.07216 10.5 8.74999 10.5C8.42782 10.5 8.16666 10.7612 8.16666 11.0833C8.16666 11.4055 8.42782 11.6667 8.74999 11.6667Z" stroke="#756D5E" stroke-opacity="0.4" stroke-width="1.16667" stroke-linecap="round" stroke-linejoin="round"/>
</svg>
