<svg width="13" height="13" viewBox="0 0 13 13" fill="none" xmlns="http://www.w3.org/2000/svg">
<g clip-path="url(#clip0_6_197)">
<path d="M11.4693 3.68982C11.7556 3.40351 11.9166 3.01516 11.9166 2.6102C11.9167 2.20525 11.7558 1.81685 11.4695 1.53047C11.1832 1.24409 10.7949 1.08317 10.3899 1.08312C9.98495 1.08307 9.59656 1.24389 9.31017 1.5302L2.08109 8.76091C1.95533 8.8863 1.86232 9.0407 1.81026 9.21049L1.09472 11.5678C1.08072 11.6147 1.07966 11.6644 1.09166 11.7118C1.10365 11.7592 1.12826 11.8025 1.16286 11.837C1.19746 11.8716 1.24076 11.8961 1.28818 11.908C1.33559 11.92 1.38535 11.9188 1.43217 11.9047L3.79005 11.1897C3.95968 11.1381 4.11406 11.0457 4.23963 10.9205L11.4693 3.68982Z" stroke="#756D5E" stroke-width="1.02083" stroke-linecap="round" stroke-linejoin="round"/>
<path d="M8.125 2.70834L10.2917 4.87501" stroke="#756D5E" stroke-width="1.02083" stroke-linecap="round" stroke-linejoin="round"/>
</g>
<defs>
<clipPath id="clip0_6_197">
<rect width="12.25" height="12.25" fill="white" transform="scale(1.06122)"/>
</clipPath>
</defs>
</svg>
