<svg width="14" height="14" viewBox="0 0 14 14" fill="none" xmlns="http://www.w3.org/2000/svg">
<path d="M6.99996 7.58332C7.32213 7.58332 7.58329 7.32216 7.58329 6.99999C7.58329 6.67782 7.32213 6.41666 6.99996 6.41666C6.67779 6.41666 6.41663 6.67782 6.41663 6.99999C6.41663 7.32216 6.67779 7.58332 6.99996 7.58332Z" stroke="#756D5E" stroke-width="1.16667" stroke-linecap="round" stroke-linejoin="round"/>
<path d="M11.0833 7.58332C11.4055 7.58332 11.6667 7.32216 11.6667 6.99999C11.6667 6.67782 11.4055 6.41666 11.0833 6.41666C10.7612 6.41666 10.5 6.67782 10.5 6.99999C10.5 7.32216 10.7612 7.58332 11.0833 7.58332Z" stroke="#756D5E" stroke-width="1.16667" stroke-linecap="round" stroke-linejoin="round"/>
<path d="M2.91665 7.58332C3.23881 7.58332 3.49998 7.32216 3.49998 6.99999C3.49998 6.67782 3.23881 6.41666 2.91665 6.41666C2.59448 6.41666 2.33331 6.67782 2.33331 6.99999C2.33331 7.32216 2.59448 7.58332 2.91665 7.58332Z" stroke="#756D5E" stroke-width="1.16667" stroke-linecap="round" stroke-linejoin="round"/>
</svg>
