<svg width="14" height="14" viewBox="0 0 14 14" fill="none" xmlns="http://www.w3.org/2000/svg">
<g clip-path="url(#clip0_7_117)">
<path d="M5.98969 12.25C6.09209 12.4273 6.23936 12.5746 6.41671 12.677C6.59406 12.7794 6.79524 12.8333 7.00002 12.8333C7.2048 12.8333 7.40598 12.7794 7.58333 12.677C7.76068 12.5746 7.90795 12.4273 8.01035 12.25" stroke="#1A1814" stroke-width="0.875" stroke-linecap="round" stroke-linejoin="round"/>
<path d="M1.90283 8.94017C1.82663 9.02369 1.77634 9.12756 1.75808 9.23914C1.73983 9.35071 1.75439 9.46519 1.8 9.56865C1.84561 9.6721 1.9203 9.76007 2.01498 9.82186C2.10967 9.88365 2.22027 9.91658 2.33333 9.91667H11.6667C11.7797 9.91671 11.8903 9.8839 11.9851 9.82223C12.0798 9.76056 12.1546 9.67269 12.2004 9.5693C12.2461 9.46591 12.2608 9.35146 12.2427 9.23988C12.2246 9.12829 12.1744 9.02436 12.0983 8.94075C11.3225 8.141 10.5 7.29108 10.5 4.66667C10.5 3.73841 10.1313 2.84817 9.47488 2.19179C8.8185 1.53541 7.92826 1.16667 7 1.16667C6.07174 1.16667 5.1815 1.53541 4.52513 2.19179C3.86875 2.84817 3.5 3.73841 3.5 4.66667C3.5 7.29108 2.67692 8.141 1.90283 8.94017Z" stroke="#1A1814" stroke-width="0.875" stroke-linecap="round" stroke-linejoin="round"/>
</g>
<defs>
<clipPath id="clip0_7_117">
<rect width="14" height="14" fill="white"/>
</clipPath>
</defs>
</svg>
