<svg width="14" height="14" viewBox="0 0 14 14" fill="none" xmlns="http://www.w3.org/2000/svg">
<path d="M8.75 1.16666H3.5C3.19058 1.16666 2.89384 1.28957 2.67504 1.50837C2.45625 1.72716 2.33333 2.0239 2.33333 2.33332V11.6667C2.33333 11.9761 2.45625 12.2728 2.67504 12.4916C2.89384 12.7104 3.19058 12.8333 3.5 12.8333H10.5C10.8094 12.8333 11.1062 12.7104 11.325 12.4916C11.5438 12.2728 11.6667 11.9761 11.6667 11.6667V4.08332L8.75 1.16666Z" stroke="#F4EFE6" stroke-opacity="0.75" stroke-width="0.875" stroke-linecap="round" stroke-linejoin="round"/>
<path d="M8.16667 1.16666V3.49999C8.16667 3.80941 8.28958 4.10616 8.50838 4.32495C8.72717 4.54374 9.02392 4.66666 9.33333 4.66666H11.6667" stroke="#F4EFE6" stroke-opacity="0.75" stroke-width="0.875" stroke-linecap="round" stroke-linejoin="round"/>
<path d="M5.83333 5.25H4.66667" stroke="#F4EFE6" stroke-opacity="0.75" stroke-width="0.875" stroke-linecap="round" stroke-linejoin="round"/>
<path d="M9.33333 7.58334H4.66667" stroke="#F4EFE6" stroke-opacity="0.75" stroke-width="0.875" stroke-linecap="round" stroke-linejoin="round"/>
<path d="M9.33333 9.91666H4.66667" stroke="#F4EFE6" stroke-opacity="0.75" stroke-width="0.875" stroke-linecap="round" stroke-linejoin="round"/>
</svg>
