<svg width="13" height="13" viewBox="0 0 13 13" fill="none" xmlns="http://www.w3.org/2000/svg">
<path d="M11.9167 9.16503V10.79C11.9173 10.9409 11.8864 11.0902 11.8259 11.2284C11.7655 11.3666 11.6769 11.4907 11.5657 11.5927C11.4545 11.6947 11.3233 11.7723 11.1804 11.8207C11.0375 11.869 10.8861 11.8869 10.7358 11.8734C9.06904 11.6923 7.46796 11.1227 6.06125 10.2104C4.75249 9.37881 3.64289 8.26921 2.81125 6.96045C1.89582 5.54735 1.32613 3.93849 1.14833 2.2642C1.1348 2.11441 1.1526 1.96344 1.20061 1.82091C1.24861 1.67838 1.32577 1.5474 1.42717 1.43633C1.52856 1.32525 1.65198 1.2365 1.78956 1.17573C1.92713 1.11496 2.07585 1.08351 2.22625 1.08336H3.85125C4.11413 1.08078 4.36897 1.17387 4.56829 1.34528C4.76761 1.51669 4.89779 1.75473 4.93458 2.01503C5.00317 2.53507 5.13037 3.04567 5.31375 3.53711C5.38663 3.73099 5.4024 3.94169 5.3592 4.14426C5.316 4.34682 5.21564 4.53276 5.07 4.68003L4.38209 5.36795C5.15318 6.72403 6.276 7.84686 7.63209 8.61795L8.32 7.93003C8.46728 7.7844 8.65321 7.68403 8.85577 7.64083C9.05834 7.59763 9.26904 7.6134 9.46292 7.68628C9.95436 7.86966 10.465 7.99686 10.985 8.06545C11.2481 8.10257 11.4884 8.2351 11.6602 8.43784C11.832 8.64058 11.9233 8.89938 11.9167 9.16503Z" stroke="#756D5E" stroke-width="0.765625" stroke-linecap="round" stroke-linejoin="round"/>
</svg>
