<svg width="14" height="14" viewBox="0 0 14 14" fill="none" xmlns="http://www.w3.org/2000/svg">
<g clip-path="url(#clip0_18_1225)">
<path d="M7.12833 1.16669H6.87167C6.56225 1.16669 6.2655 1.2896 6.04671 1.5084C5.82792 1.72719 5.705 2.02393 5.705 2.33335V2.43835C5.70479 2.64294 5.65078 2.84388 5.5484 3.02101C5.44601 3.19814 5.29885 3.34523 5.12167 3.44752L4.87083 3.59335C4.69348 3.69575 4.49229 3.74966 4.2875 3.74966C4.08271 3.74966 3.88152 3.69575 3.70417 3.59335L3.61667 3.54669C3.34896 3.39226 3.03091 3.35036 2.73234 3.4302C2.43377 3.51004 2.17907 3.70508 2.02417 3.97252L1.89583 4.19419C1.7414 4.4619 1.69951 4.77995 1.77935 5.07852C1.85918 5.37709 2.05423 5.63178 2.32167 5.78669L2.40917 5.84502C2.5855 5.94682 2.73211 6.09299 2.83445 6.269C2.93678 6.44502 2.99127 6.64475 2.9925 6.84835V7.14585C2.99332 7.35143 2.9398 7.55358 2.83736 7.73182C2.73492 7.91006 2.58721 8.05806 2.40917 8.16085L2.32167 8.21335C2.05423 8.36826 1.85918 8.62295 1.77935 8.92152C1.69951 9.22009 1.7414 9.53814 1.89583 9.80585L2.02417 10.0275C2.17907 10.295 2.43377 10.49 2.73234 10.5698C3.03091 10.6497 3.34896 10.6078 3.61667 10.4534L3.70417 10.4067C3.88152 10.3043 4.08271 10.2504 4.2875 10.2504C4.49229 10.2504 4.69348 10.3043 4.87083 10.4067L5.12167 10.5525C5.29885 10.6548 5.44601 10.8019 5.5484 10.979C5.65078 11.1562 5.70479 11.3571 5.705 11.5617V11.6667C5.705 11.9761 5.82792 12.2729 6.04671 12.4916C6.2655 12.7104 6.56225 12.8334 6.87167 12.8334H7.12833C7.43775 12.8334 7.7345 12.7104 7.95329 12.4916C8.17208 12.2729 8.295 11.9761 8.295 11.6667V11.5617C8.29521 11.3571 8.34922 11.1562 8.4516 10.979C8.55399 10.8019 8.70115 10.6548 8.87833 10.5525L9.12917 10.4067C9.30652 10.3043 9.50771 10.2504 9.7125 10.2504C9.91729 10.2504 10.1185 10.3043 10.2958 10.4067L10.3833 10.4534C10.651 10.6078 10.9691 10.6497 11.2677 10.5698C11.5662 10.49 11.8209 10.295 11.9758 10.0275L12.1042 9.80002C12.2586 9.53231 12.3005 9.21426 12.2207 8.91569C12.1408 8.61712 11.9458 8.36242 11.6783 8.20752L11.5908 8.16085C11.4128 8.05806 11.2651 7.91006 11.1626 7.73182C11.0602 7.55358 11.0067 7.35143 11.0075 7.14585V6.85419C11.0067 6.64861 11.0602 6.44646 11.1626 6.26822C11.2651 6.08998 11.4128 5.94198 11.5908 5.83919L11.6783 5.78669C11.9458 5.63178 12.1408 5.37709 12.2207 5.07852C12.3005 4.77995 12.2586 4.4619 12.1042 4.19419L11.9758 3.97252C11.8209 3.70508 11.5662 3.51004 11.2677 3.4302C10.9691 3.35036 10.651 3.39226 10.3833 3.54669L10.2958 3.59335C10.1185 3.69575 9.91729 3.74966 9.7125 3.74966C9.50771 3.74966 9.30652 3.69575 9.12917 3.59335L8.87833 3.44752C8.70115 3.34523 8.55399 3.19814 8.4516 3.02101C8.34922 2.84388 8.29521 2.64294 8.295 2.43835V2.33335C8.295 2.02393 8.17208 1.72719 7.95329 1.5084C7.7345 1.2896 7.43775 1.16669 7.12833 1.16669Z" stroke="#F4EFE6" stroke-opacity="0.7" stroke-width="0.875" stroke-linecap="round" stroke-linejoin="round"/>
<path d="M7 8.75C7.9665 8.75 8.75 7.9665 8.75 7C8.75 6.0335 7.9665 5.25 7 5.25C6.0335 5.25 5.25 6.0335 5.25 7C5.25 7.9665 6.0335 8.75 7 8.75Z" stroke="#F4EFE6" stroke-opacity="0.7" stroke-width="0.875" stroke-linecap="round" stroke-linejoin="round"/>
</g>
<defs>
<clipPath id="clip0_18_1225">
<rect width="14" height="14" fill="white"/>
</clipPath>
</defs>
</svg>
