<svg width="14" height="14" viewBox="0 0 14 14" fill="none" xmlns="http://www.w3.org/2000/svg">
<g clip-path="url(#clip0_18_1185)">
<path d="M1.16667 4.08334L3.73917 1.51084C3.8477 1.40166 3.97677 1.31504 4.11893 1.25597C4.2611 1.1969 4.41355 1.16655 4.5675 1.16667H9.4325C9.58645 1.16655 9.7389 1.1969 9.88106 1.25597C10.0232 1.31504 10.1523 1.40166 10.2608 1.51084L12.8333 4.08334" stroke="#F4EFE6" stroke-opacity="0.75" stroke-width="0.875" stroke-linecap="round" stroke-linejoin="round"/>
<path d="M2.33333 7V11.6667C2.33333 11.9761 2.45625 12.2728 2.67504 12.4916C2.89384 12.7104 3.19058 12.8333 3.5 12.8333H10.5C10.8094 12.8333 11.1062 12.7104 11.325 12.4916C11.5438 12.2728 11.6667 11.9761 11.6667 11.6667V7" stroke="#F4EFE6" stroke-opacity="0.75" stroke-width="0.875" stroke-linecap="round" stroke-linejoin="round"/>
<path d="M8.75 12.8333V10.5C8.75 10.1906 8.62708 9.89383 8.40829 9.67504C8.1895 9.45624 7.89275 9.33333 7.58333 9.33333H6.41667C6.10725 9.33333 5.8105 9.45624 5.59171 9.67504C5.37292 9.89383 5.25 10.1906 5.25 10.5V12.8333" stroke="#F4EFE6" stroke-opacity="0.75" stroke-width="0.875" stroke-linecap="round" stroke-linejoin="round"/>
<path d="M1.16667 4.08333H12.8333" stroke="#F4EFE6" stroke-opacity="0.75" stroke-width="0.875" stroke-linecap="round" stroke-linejoin="round"/>
<path d="M12.8333 4.08333V5.83333C12.8333 6.14275 12.7104 6.43949 12.4916 6.65829C12.2728 6.87708 11.9761 6.99999 11.6667 6.99999C11.3258 6.98124 11.0003 6.85226 10.7392 6.63249C10.6696 6.5822 10.5859 6.55512 10.5 6.55512C10.4141 6.55512 10.3304 6.5822 10.2608 6.63249C9.99966 6.85226 9.67415 6.98124 9.33333 6.99999C8.99251 6.98124 8.66701 6.85226 8.40583 6.63249C8.33623 6.5822 8.25254 6.55512 8.16667 6.55512C8.08079 6.55512 7.9971 6.5822 7.9275 6.63249C7.66632 6.85226 7.34082 6.98124 7 6.99999C6.65918 6.98124 6.33368 6.85226 6.0725 6.63249C6.0029 6.5822 5.91921 6.55512 5.83333 6.55512C5.74746 6.55512 5.66377 6.5822 5.59417 6.63249C5.33299 6.85226 5.00749 6.98124 4.66667 6.99999C4.32584 6.98124 4.00034 6.85226 3.73917 6.63249C3.66956 6.5822 3.58587 6.55512 3.5 6.55512C3.41412 6.55512 3.33044 6.5822 3.26083 6.63249C2.99966 6.85226 2.67415 6.98124 2.33333 6.99999C2.02391 6.99999 1.72717 6.87708 1.50837 6.65829C1.28958 6.43949 1.16667 6.14275 1.16667 5.83333V4.08333" stroke="#F4EFE6" stroke-opacity="0.75" stroke-width="0.875" stroke-linecap="round" stroke-linejoin="round"/>
</g>
<defs>
<clipPath id="clip0_18_1185">
<rect width="14" height="14" fill="white"/>
</clipPath>
</defs>
</svg>
