<svg xmlns="http://www.w3.org/2000/svg" width="640" height="420" viewBox="0 0 640 420" role="img" aria-label="ID photo product cover">
  <defs>
    <linearGradient id="bg" x1="0" y1="0" x2="1" y2="1">
      <stop offset="0" stop-color="#f8fbff"/>
      <stop offset="1" stop-color="#e9f1f8"/>
    </linearGradient>
    <linearGradient id="card" x1="0" y1="0" x2="0" y2="1">
      <stop offset="0" stop-color="#ffffff"/>
      <stop offset="1" stop-color="#eef4f8"/>
    </linearGradient>
  </defs>
  <rect width="640" height="420" fill="url(#bg)"/>
  <rect x="54" y="54" width="532" height="312" rx="16" fill="#fff" stroke="#d8e4ec"/>
  <rect x="91" y="88" width="194" height="244" rx="10" fill="url(#card)" stroke="#ccdce6"/>
  <rect x="124" y="122" width="128" height="112" rx="56" fill="#dce9ef"/>
  <path d="M105 310c22-58 144-58 166 0" fill="#c9dce5"/>
  <rect x="326" y="101" width="224" height="18" rx="9" fill="#d7e4ec"/>
  <rect x="326" y="143" width="178" height="14" rx="7" fill="#e1ebf1"/>
  <rect x="326" y="175" width="202" height="14" rx="7" fill="#e1ebf1"/>
  <rect x="326" y="230" width="110" height="34" rx="17" fill="#ff7a45"/>
  <rect x="454" y="230" width="96" height="34" rx="17" fill="#243142"/>
  <circle cx="520" cy="318" r="28" fill="#35c26b"/>
  <path d="M506 318l9 9 19-21" fill="none" stroke="#fff" stroke-width="8" stroke-linecap="round" stroke-linejoin="round"/>
</svg>
